<svg id="レイヤー_1" data-name="レイヤー 1" xmlns="http://www.w3.org/2000/svg" viewBox="0 0 363.62 120.82"><defs><style>.cls-1{fill:#f49c2d;}.cls-2{fill:#000432;}.cls-3{fill:#fff;}</style></defs><path class="cls-1" d="M119.68,54.87,113.5,24.23,101.6,47.41a76.7,76.7,0,0,0-37.76,0L51.94,24.23,45.75,54.87C30.49,64,20.6,78.58,20.6,95.05c0,27.61,27.81,50,62.12,50s62.12-22.39,62.12-50C144.84,78.58,135,64,119.68,54.87Z" transform="translate(-20.6 -24.23)"/><ellipse class="cls-2" cx="62.12" cy="76.82" rx="20.04" ry="12.55"/><path class="cls-2" d="M51.86,98.55a.93.93,0,0,1-.4-.09l-21.9-9.58a1,1,0,1,1,.8-1.83l21.9,9.58a1,1,0,0,1-.4,1.92Z" transform="translate(-20.6 -24.23)"/><path class="cls-2" d="M51.41,104.73H27.51a1,1,0,0,1,0-2h23.9a1,1,0,0,1,0,2Z" transform="translate(-20.6 -24.23)"/><path class="cls-2" d="M113.58,98.55a1,1,0,0,1-.92-.6,1,1,0,0,1,.52-1.32l21.9-9.58a1,1,0,1,1,.8,1.83L114,98.46A.93.93,0,0,1,113.58,98.55Z" transform="translate(-20.6 -24.23)"/><path class="cls-2" d="M137.93,104.73H114a1,1,0,0,1,0-2h23.9a1,1,0,0,1,0,2Z" transform="translate(-20.6 -24.23)"/><path class="cls-2" d="M94.06,77.61a1.06,1.06,0,0,1-.23-.74,1,1,0,0,1,1.09-.9l5.78.54a1,1,0,1,1-.18,2L94.74,78A1,1,0,0,1,94.06,77.61Z" transform="translate(-20.6 -24.23)"/><path class="cls-2" d="M71.38,77.61a1.06,1.06,0,0,0,.23-.74,1,1,0,0,0-1.09-.9l-5.78.54a1,1,0,1,0,.18,2L70.7,78A1,1,0,0,0,71.38,77.61Z" transform="translate(-20.6 -24.23)"/><path class="cls-1" d="M179.21,60.45V76.18a3,3,0,0,1-.58,1.82,4.16,4.16,0,0,1-3.55,1.49,4.4,4.4,0,0,1-3.25-1.17,2.92,2.92,0,0,1-.85-2.14v-35Q171,35,177.16,35H200a2.58,2.58,0,0,1,1.88.76A3.69,3.69,0,0,1,203,38.54a3.47,3.47,0,0,1-1.52,3.19,2.66,2.66,0,0,1-1.41.38H180.3a1,1,0,0,0-1.09,1.09V53.62h18a2.5,2.5,0,0,1,1.79.71,3.66,3.66,0,0,1,1,2.75,3.25,3.25,0,0,1-1.49,3,2.51,2.51,0,0,1-1.35.35Z" transform="translate(-20.6 -24.23)"/><path class="cls-1" d="M218.21,37.66V61q0,11.63,10.14,11.63T238.48,61V37.66a2.83,2.83,0,0,1,1.06-2.29,4.61,4.61,0,0,1,3-1,4.43,4.43,0,0,1,3.26,1.17,2.9,2.9,0,0,1,.85,2.11V62.09q0,6.85-2.82,10.69a16.83,16.83,0,0,1-3.13,3.14,19.77,19.77,0,0,1-12.42,4,19.22,19.22,0,0,1-13.63-5,13.76,13.76,0,0,1-4.07-6.8,24.8,24.8,0,0,1-.64-6V37.66a2.9,2.9,0,0,1,1.75-2.76,5.42,5.42,0,0,1,2.38-.52,4.87,4.87,0,0,1,2.75.79A2.79,2.79,0,0,1,218.21,37.66Z" transform="translate(-20.6 -24.23)"/><path class="cls-1" d="M278.38,42.23H258.23a2.44,2.44,0,0,1-2.05-1,4.33,4.33,0,0,1-.85-2.72,3.32,3.32,0,0,1,1.52-3.14,2.77,2.77,0,0,1,1.38-.35H285a4.51,4.51,0,0,1,3.51,1.38,3.28,3.28,0,0,1,.88,2.31,6.29,6.29,0,0,1-1.58,3.93L264.7,71.55h23.94a2.67,2.67,0,0,1,2.08.94,4,4,0,0,1,.91,2.7,3.56,3.56,0,0,1-1.56,3.25,2.68,2.68,0,0,1-1.43.38H258.52A4.49,4.49,0,0,1,255,77.44a3.79,3.79,0,0,1-.94-2.63,6.71,6.71,0,0,1,1.67-4.22Z" transform="translate(-20.6 -24.23)"/><path class="cls-1" d="M319.78,42.23H299.62a2.45,2.45,0,0,1-2.05-1,4.39,4.39,0,0,1-.85-2.72,3.31,3.31,0,0,1,1.53-3.14,2.76,2.76,0,0,1,1.37-.35h26.75a4.52,4.52,0,0,1,3.52,1.38,3.33,3.33,0,0,1,.88,2.31,6.29,6.29,0,0,1-1.58,3.93L306.1,71.55H330a2.65,2.65,0,0,1,2.08.94,4,4,0,0,1,.91,2.7,3.56,3.56,0,0,1-1.55,3.25,2.71,2.71,0,0,1-1.44.38H299.92a4.5,4.5,0,0,1-3.55-1.38,3.83,3.83,0,0,1-.93-2.63,6.7,6.7,0,0,1,1.66-4.22Z" transform="translate(-20.6 -24.23)"/><path class="cls-1" d="M351.51,60.28,336.92,41.09a4.29,4.29,0,0,1-.94-2.61,3.8,3.8,0,0,1,1.47-3,4.54,4.54,0,0,1,3-1.11,4,4,0,0,1,3.37,1.75l11.78,16.21,11.75-16.21a4.07,4.07,0,0,1,3.43-1.78,4.21,4.21,0,0,1,2.46.79,3.93,3.93,0,0,1,2,3.37,4.22,4.22,0,0,1-.94,2.55L359.68,60.28V76.12a3,3,0,0,1-1,2.29,4.59,4.59,0,0,1-3.14,1.08,3.92,3.92,0,0,1-3.6-1.7,2.93,2.93,0,0,1-.47-1.67Z" transform="translate(-20.6 -24.23)"/><path class="cls-1" d="M173,122.72l6.24-28.3c.7-3.25,2.62-4.87,5.74-4.87s5.07,1.62,5.77,4.87l6.24,28.3,7.44-30.59a3.39,3.39,0,0,1,3.7-2.75,5.71,5.71,0,0,1,1.81.29,3.25,3.25,0,0,1,2.55,3.25,3.68,3.68,0,0,1-.15,1l-9.22,36q-1.21,4.62-5.83,4.62a5.65,5.65,0,0,1-4.43-1.87,6.69,6.69,0,0,1-1.38-2.87l-6.47-29-6.5,29a6.15,6.15,0,0,1-1.59,3.07,5.66,5.66,0,0,1-4.24,1.67q-4.6,0-5.8-4.62l-9.23-35.95a3.68,3.68,0,0,1-.15-1,3.23,3.23,0,0,1,2-3,5.39,5.39,0,0,1,2.43-.58,3.38,3.38,0,0,1,3.67,2.78Z" transform="translate(-20.6 -24.23)"/><path class="cls-1" d="M227.22,92.66V116q0,11.63,10.13,11.63T247.49,116V92.66a2.83,2.83,0,0,1,1.06-2.29,4.61,4.61,0,0,1,3-1,4.39,4.39,0,0,1,3.25,1.17,2.86,2.86,0,0,1,.85,2.11v24.43q0,6.85-2.81,10.69a16.83,16.83,0,0,1-3.13,3.14,19.77,19.77,0,0,1-12.42,4,19.22,19.22,0,0,1-13.63-5,13.76,13.76,0,0,1-4.07-6.8,24.8,24.8,0,0,1-.64-6V92.66a2.9,2.9,0,0,1,1.75-2.76,5.42,5.42,0,0,1,2.38-.52,4.87,4.87,0,0,1,2.75.79A2.79,2.79,0,0,1,227.22,92.66Z" transform="translate(-20.6 -24.23)"/><path class="cls-1" d="M287.39,97.23H267.24a2.42,2.42,0,0,1-2.05-1,4.33,4.33,0,0,1-.85-2.72,3.31,3.31,0,0,1,1.52-3.14,2.77,2.77,0,0,1,1.38-.35H294a4.52,4.52,0,0,1,3.52,1.38,3.28,3.28,0,0,1,.88,2.31,6.29,6.29,0,0,1-1.58,3.93l-23.09,28.91h23.94a2.67,2.67,0,0,1,2.08.94,4,4,0,0,1,.91,2.7,3.56,3.56,0,0,1-1.56,3.25,2.7,2.7,0,0,1-1.43.38H267.53a4.49,4.49,0,0,1-3.54-1.38,3.79,3.79,0,0,1-.94-2.63,6.65,6.65,0,0,1,1.67-4.22Z" transform="translate(-20.6 -24.23)"/><path class="cls-1" d="M328.79,97.23H308.63a2.44,2.44,0,0,1-2.05-1,4.39,4.39,0,0,1-.85-2.72,3.31,3.31,0,0,1,1.53-3.14,2.76,2.76,0,0,1,1.37-.35h26.75a4.52,4.52,0,0,1,3.52,1.38,3.33,3.33,0,0,1,.88,2.31,6.25,6.25,0,0,1-1.59,3.93l-23.08,28.91H339a2.65,2.65,0,0,1,2.08.94,4,4,0,0,1,.91,2.7,3.58,3.58,0,0,1-1.55,3.25,2.71,2.71,0,0,1-1.44.38H308.93a4.5,4.5,0,0,1-3.55-1.38,3.83,3.83,0,0,1-.94-2.63,6.71,6.71,0,0,1,1.67-4.22Z" transform="translate(-20.6 -24.23)"/><path class="cls-1" d="M360.52,115.28,345.93,96.09a4.29,4.29,0,0,1-.94-2.61,3.8,3.8,0,0,1,1.47-3,4.52,4.52,0,0,1,3-1.11,4,4,0,0,1,3.37,1.75l11.78,16.21,11.75-16.21a4.07,4.07,0,0,1,3.43-1.78,4.26,4.26,0,0,1,2.46.79,4,4,0,0,1,2,3.37,4.22,4.22,0,0,1-.94,2.55l-14.59,19.19v15.84a3,3,0,0,1-1,2.29,4.61,4.61,0,0,1-3.14,1.08,3.92,3.92,0,0,1-3.6-1.7,2.85,2.85,0,0,1-.47-1.67Z" transform="translate(-20.6 -24.23)"/><path class="cls-3" d="M177.21,57.45V73.18a3,3,0,0,1-.58,1.82,4.16,4.16,0,0,1-3.55,1.49,4.4,4.4,0,0,1-3.25-1.17,2.92,2.92,0,0,1-.85-2.14v-35Q169,32,175.16,32H198a2.58,2.58,0,0,1,1.88.76A3.69,3.69,0,0,1,201,35.54a3.47,3.47,0,0,1-1.52,3.19,2.66,2.66,0,0,1-1.41.38H178.3a1,1,0,0,0-1.09,1.09V50.62h18a2.5,2.5,0,0,1,1.79.71,3.66,3.66,0,0,1,1,2.75,3.25,3.25,0,0,1-1.49,3,2.51,2.51,0,0,1-1.35.35Z" transform="translate(-20.6 -24.23)"/><path class="cls-3" d="M216.21,34.66V58q0,11.63,10.14,11.63T236.48,58V34.66a2.83,2.83,0,0,1,1.06-2.29,4.61,4.61,0,0,1,3-1,4.43,4.43,0,0,1,3.26,1.17,2.9,2.9,0,0,1,.85,2.11V59.09q0,6.85-2.82,10.69a16.83,16.83,0,0,1-3.13,3.14,19.77,19.77,0,0,1-12.42,4,19.22,19.22,0,0,1-13.63-5,13.76,13.76,0,0,1-4.07-6.8,24.8,24.8,0,0,1-.64-6V34.66a2.9,2.9,0,0,1,1.75-2.76,5.42,5.42,0,0,1,2.38-.52,4.87,4.87,0,0,1,2.75.79A2.79,2.79,0,0,1,216.21,34.66Z" transform="translate(-20.6 -24.23)"/><path class="cls-3" d="M276.38,39.23H256.23a2.44,2.44,0,0,1-2.05-1,4.33,4.33,0,0,1-.85-2.72,3.32,3.32,0,0,1,1.52-3.14,2.77,2.77,0,0,1,1.38-.35H283a4.51,4.51,0,0,1,3.51,1.38,3.28,3.28,0,0,1,.88,2.31,6.29,6.29,0,0,1-1.58,3.93L262.7,68.55h23.94a2.67,2.67,0,0,1,2.08.94,4,4,0,0,1,.91,2.7,3.56,3.56,0,0,1-1.56,3.25,2.68,2.68,0,0,1-1.43.38H256.52A4.49,4.49,0,0,1,253,74.44a3.79,3.79,0,0,1-.94-2.63,6.71,6.71,0,0,1,1.67-4.22Z" transform="translate(-20.6 -24.23)"/><path class="cls-3" d="M317.78,39.23H297.62a2.45,2.45,0,0,1-2.05-1,4.39,4.39,0,0,1-.85-2.72,3.31,3.31,0,0,1,1.53-3.14,2.76,2.76,0,0,1,1.37-.35h26.75a4.52,4.52,0,0,1,3.52,1.38,3.33,3.33,0,0,1,.88,2.31,6.29,6.29,0,0,1-1.58,3.93L304.1,68.55H328a2.65,2.65,0,0,1,2.08.94,4,4,0,0,1,.91,2.7,3.56,3.56,0,0,1-1.55,3.25,2.71,2.71,0,0,1-1.44.38H297.92a4.5,4.5,0,0,1-3.55-1.38,3.83,3.83,0,0,1-.93-2.63,6.7,6.7,0,0,1,1.66-4.22Z" transform="translate(-20.6 -24.23)"/><path class="cls-3" d="M349.51,57.28,334.92,38.09a4.29,4.29,0,0,1-.94-2.61,3.8,3.8,0,0,1,1.47-3,4.54,4.54,0,0,1,3-1.11,4,4,0,0,1,3.37,1.75l11.78,16.21,11.75-16.21a4.07,4.07,0,0,1,3.43-1.78,4.21,4.21,0,0,1,2.46.79,3.93,3.93,0,0,1,2,3.37,4.22,4.22,0,0,1-.94,2.55L357.68,57.28V73.12a3,3,0,0,1-1,2.29,4.59,4.59,0,0,1-3.14,1.08,3.92,3.92,0,0,1-3.6-1.7,2.93,2.93,0,0,1-.47-1.67Z" transform="translate(-20.6 -24.23)"/><path class="cls-3" d="M171,119.72l6.24-28.3c.7-3.25,2.62-4.87,5.74-4.87s5.07,1.62,5.77,4.87l6.24,28.3,7.44-30.59a3.39,3.39,0,0,1,3.7-2.75,5.71,5.71,0,0,1,1.81.29,3.25,3.25,0,0,1,2.55,3.25,3.68,3.68,0,0,1-.15,1l-9.22,36q-1.21,4.62-5.83,4.62a5.65,5.65,0,0,1-4.43-1.87,6.69,6.69,0,0,1-1.38-2.87l-6.47-29-6.5,29a6.15,6.15,0,0,1-1.59,3.07,5.66,5.66,0,0,1-4.24,1.67q-4.6,0-5.8-4.62l-9.23-35.95a3.68,3.68,0,0,1-.15-1,3.23,3.23,0,0,1,2-3,5.39,5.39,0,0,1,2.43-.58,3.38,3.38,0,0,1,3.67,2.78Z" transform="translate(-20.6 -24.23)"/><path class="cls-3" d="M225.22,89.66V113q0,11.63,10.13,11.63T245.49,113V89.66a2.83,2.83,0,0,1,1.06-2.29,4.61,4.61,0,0,1,3-1,4.39,4.39,0,0,1,3.25,1.17,2.86,2.86,0,0,1,.85,2.11v24.43q0,6.85-2.81,10.69a16.83,16.83,0,0,1-3.13,3.14,19.77,19.77,0,0,1-12.42,4,19.22,19.22,0,0,1-13.63-5,13.76,13.76,0,0,1-4.07-6.8,24.8,24.8,0,0,1-.64-6V89.66a2.9,2.9,0,0,1,1.75-2.76,5.42,5.42,0,0,1,2.38-.52,4.87,4.87,0,0,1,2.75.79A2.79,2.79,0,0,1,225.22,89.66Z" transform="translate(-20.6 -24.23)"/><path class="cls-3" d="M285.39,94.23H265.24a2.42,2.42,0,0,1-2.05-1,4.33,4.33,0,0,1-.85-2.72,3.31,3.31,0,0,1,1.52-3.14,2.77,2.77,0,0,1,1.38-.35H292a4.52,4.52,0,0,1,3.52,1.38,3.28,3.28,0,0,1,.88,2.31,6.29,6.29,0,0,1-1.58,3.93l-23.09,28.91h23.94a2.67,2.67,0,0,1,2.08.94,4,4,0,0,1,.91,2.7,3.56,3.56,0,0,1-1.56,3.25,2.7,2.7,0,0,1-1.43.38H265.53a4.49,4.49,0,0,1-3.54-1.38,3.79,3.79,0,0,1-.94-2.63,6.65,6.65,0,0,1,1.67-4.22Z" transform="translate(-20.6 -24.23)"/><path class="cls-3" d="M326.79,94.23H306.63a2.44,2.44,0,0,1-2.05-1,4.39,4.39,0,0,1-.85-2.72,3.31,3.31,0,0,1,1.53-3.14,2.76,2.76,0,0,1,1.37-.35h26.75a4.52,4.52,0,0,1,3.52,1.38,3.33,3.33,0,0,1,.88,2.31,6.25,6.25,0,0,1-1.59,3.93l-23.08,28.91H337a2.65,2.65,0,0,1,2.08.94,4,4,0,0,1,.91,2.7,3.58,3.58,0,0,1-1.55,3.25,2.71,2.71,0,0,1-1.44.38H306.93a4.5,4.5,0,0,1-3.55-1.38,3.83,3.83,0,0,1-.94-2.63,6.71,6.71,0,0,1,1.67-4.22Z" transform="translate(-20.6 -24.23)"/><path class="cls-3" d="M358.52,112.28,343.93,93.09a4.29,4.29,0,0,1-.94-2.61,3.8,3.8,0,0,1,1.47-3,4.52,4.52,0,0,1,3-1.11,4,4,0,0,1,3.37,1.75l11.78,16.21,11.75-16.21a4.07,4.07,0,0,1,3.43-1.78,4.26,4.26,0,0,1,2.46.79,4,4,0,0,1,2,3.37,4.22,4.22,0,0,1-.94,2.55l-14.59,19.19v15.84a3,3,0,0,1-1,2.29,4.61,4.61,0,0,1-3.14,1.08,3.92,3.92,0,0,1-3.6-1.7,2.85,2.85,0,0,1-.47-1.67Z" transform="translate(-20.6 -24.23)"/></svg>